<?xml version="1.0" encoding="utf-8"?>
<!-- Generator: Adobe Illustrator 16.0.0, SVG Export Plug-In . SVG Version: 6.00 Build 0)  -->
<!DOCTYPE svg PUBLIC "-//W3C//DTD SVG 1.1//EN" "http://www.w3.org/Graphics/SVG/1.1/DTD/svg11.dtd">
<svg version="1.1" id="Layer_1" xmlns="http://www.w3.org/2000/svg" xmlns:xlink="http://www.w3.org/1999/xlink" x="0px" y="0px"
	 width="240.107px" height="150.802px" viewBox="0 0 240.107 150.802" enable-background="new 0 0 240.107 150.802"
	 xml:space="preserve">
<g>
	<path fill-rule="evenodd" clip-rule="evenodd" fill="#005BAA" d="M28.745,90.714c0.736-0.967,1.472-1.639,2.216-2.049
		c0.736-0.404,1.549-0.842,2.435-1.332c0.891-0.488,2.01-0.781,3.343-0.873c1.34-0.092,2.456-0.033,3.349,0.199
		c0.899,0.221,1.872,0.568,2.922,1.02c1.045,0.471,2.135,1.355,3.267,2.686c1.133,1.326,2.01,2.932,2.633,4.828
		c0.62,1.883,0.616,4.334-0.019,7.348c-0.636,3.006-1.569,5.432-2.814,7.262c-1.237,1.828-2.562,3.186-3.966,4.072
		c-1.4,0.887-2.922,1.34-4.562,1.361c-1.634,0.018-2.461,0.074-2.455,0.148c-0.002,0.086,0.005,0.756,0.028,2.014
		c0.014,1.268-0.047,2.328-0.178,3.205c-0.147,0.867-0.578,1.703-1.31,2.5c-0.741,0.805-1.59,1.207-2.559,1.217
		c-0.971,0.008-1.79-0.096-2.463-0.322c-0.664-0.227-1.237-0.773-1.692-1.637c-0.46-0.863-0.626-2.477-0.51-4.852
		c0.125-2.365,0.399-9.723,0.84-22.039C27.517,93.248,28.014,91.664,28.745,90.714 M35.057,103.783
		c0.082,0.547,0.164,0.977,0.245,1.295c0.078,0.312,0.31,0.549,0.672,0.705c0.38,0.154,0.864,0.225,1.458,0.217
		c0.595-0.01,1.186-0.209,1.779-0.613c0.589-0.404,1.108-0.887,1.543-1.439c0.439-0.557,0.7-1.15,0.764-1.793
		c0.063-0.629,0.093-1.336,0.085-2.127c-0.011-0.793-0.135-1.74-0.376-2.84c-0.234-1.098-0.73-1.73-1.478-1.881
		c-0.745-0.148-1.523-0.02-2.336,0.381c-0.814,0.42-1.403,1.135-1.759,2.156c-0.361,1.031-0.606,2.268-0.738,3.682
		C34.932,102.476,34.973,103.228,35.057,103.783"/>
	<path fill-rule="evenodd" clip-rule="evenodd" fill="#005BAA" d="M54.878,76.484c-0.007-0.328-0.045-0.564-0.102-0.697
		c-0.073-0.131-0.102-0.363-0.104-0.705c-0.005-0.334,0.015-0.736,0.079-1.205c0.052-0.471,0.494-1.082,1.302-1.828
		c0.813-0.758,1.703-1.266,2.644-1.549c0.94-0.283,1.867-0.258,2.748,0.064c0.896,0.326,1.626,0.688,2.2,1.076
		c0.569,0.402,1.154,0.895,1.728,1.492c0.58,0.598,0.962,1.264,1.158,2.006c0.205,0.734,0.308,1.537,0.323,2.406
		c0.008,0.873-0.167,1.947-0.527,3.23c-0.367,1.279-0.919,2.293-1.674,3.039c-0.748,0.752-1.54,1.268-2.354,1.541
		c-0.811,0.279-1.445,0.422-1.89,0.43s-1.139-0.018-2.092-0.072c-0.95-0.055-1.773-0.283-2.477-0.678
		c-0.7-0.391-1.309-0.926-1.818-1.586c-0.523-0.668-0.785-1.373-0.792-2.109c-0.008-0.73,0.082-1.406,0.258-2.008
		c0.188-0.611,0.457-1.453,0.821-2.537C54.693,76.931,54.883,76.828,54.878,76.484 M56.486,98.166
		c-0.01-0.551-0.059-1.031-0.137-1.426c-0.073-0.393-0.198-0.82-0.348-1.293c-0.153-0.477-0.235-0.945-0.243-1.426
		c-0.001-0.467,0.101-1.023,0.313-1.654c0.213-0.639,0.544-1.072,0.996-1.326c0.441-0.234,1.068-0.402,1.888-0.488
		c0.82-0.088,1.483-0.107,2.003-0.027c0.527,0.074,1.274,0.453,2.252,1.154c0.981,0.701,1.62,1.678,1.939,2.936
		c0.316,1.262,0.42,3.594,0.309,6.988c-0.105,3.4-0.29,6.643-0.543,9.715c-0.261,3.092-0.643,5.15-1.15,6.184
		c-0.511,1.027-1.248,1.635-2.215,1.807c-0.962,0.164-1.965,0.141-3.013-0.09c-1.044-0.219-1.793-0.523-2.245-0.906
		c-0.459-0.396-0.87-1.018-1.254-1.889c-0.381-0.867-0.47-2.08-0.268-3.668c0.198-1.584,0.59-3.012,1.176-4.273
		c0.573-1.279,0.839-3.883,0.795-7.838C56.575,99.546,56.495,98.714,56.486,98.166"/>
	<path fill-rule="evenodd" clip-rule="evenodd" fill="#005BAA" d="M71.277,112.035c0.19-8.215,0.62-12.805,1.273-13.76
		c0.658-0.955,1.54-1.557,2.657-1.807c1.113-0.252,2.117-0.303,3.012-0.164c0.9,0.148,1.575,0.416,2.023,0.803
		c0.452,0.393,0.709,0.832,0.801,1.299c0.078,0.473,0.123,0.988,0.126,1.541c0.009,0.553,0.829,0.619,2.458,0.205
		c1.634-0.416,3.162-0.355,4.585,0.176c1.421,0.537,2.624,1.623,3.609,3.275c0.99,1.641,1.652,3.645,1.982,6.018
		c0.324,2.367,0.42,4.293,0.293,5.797c-0.123,1.502-0.482,2.691-1.069,3.568c-0.587,0.875-1.25,1.438-1.992,1.682
		c-0.737,0.246-1.446,0.371-2.114,0.381c-0.668,0.008-1.23-0.178-1.68-0.566c-0.453-0.391-0.984-0.977-1.593-1.766
		c-0.605-0.777-0.912-1.723-0.928-2.834c-0.01-1.1-0.023-2.082-0.034-2.951c-0.013-0.873-0.275-1.424-0.805-1.652
		c-0.526-0.229-0.974-0.305-1.34-0.219c-0.376,0.092-0.74,0.373-1.108,0.846c-0.364,0.482-0.544,1.111-0.538,1.898
		c0.013,0.789,0.026,1.695,0.036,2.73c0.014,1.023-0.164,1.938-0.517,2.729c-0.37,0.797-0.728,1.387-1.097,1.797
		c-0.365,0.395-0.887,0.631-1.558,0.725c-0.664,0.088-1.486,0.096-2.454,0.031c-0.969-0.066-1.758-0.533-2.365-1.391
		c-0.599-0.861-1.026-1.717-1.261-2.592c-0.231-0.859-0.357-1.934-0.374-3.193C71.294,113.382,71.285,112.509,71.277,112.035"/>
	<path fill-rule="evenodd" clip-rule="evenodd" fill="#005BAA" d="M105.503,83.044c1.045-0.064,2.12-0.096,3.242-0.092
		c1.115,0.004,2.29,0.289,3.518,0.836c1.236,0.555,1.868,1.139,1.912,1.77c0.039,0.637,0.055,1.469,0.055,2.494
		c-0.014,1.027-0.509,2.01-1.486,2.945c-0.986,0.941-2.065,1.562-3.237,1.871c-1.173,0.314-2.723,0.619-4.642,0.9
		c1.028,4.211,2.163,8.41,3.408,12.605c1.241,4.186,2,7.662,2.25,10.416c0.259,2.742,0.142,4.379-0.347,4.881
		c-0.484,0.516-1.088,0.992-1.804,1.43c-0.718,0.438-1.49,0.662-2.312,0.629c-0.82-0.029-1.697-0.244-2.622-0.656
		c-0.915-0.414-1.713-1.709-2.377-3.885c-0.667-2.17-2.376-10.607-5.14-25.303c-1.629,0.111-2.747,0.139-3.34,0.104
		c-0.611-0.037-1.252-0.152-1.943-0.354c-0.669-0.18-1.296-0.578-1.86-1.172c-0.56-0.594-0.861-1.129-0.884-1.609
		c-0.041-0.471-0.047-1.184-0.035-2.131c0.01-0.951,0.333-1.77,0.957-2.438c0.627-0.678,1.199-1.107,1.711-1.299
		c0.502-0.193,1.726-0.354,3.657-0.48c-2.385-9.021-3.619-14.123-3.695-15.309c-0.082-1.185-0.117-2.25-0.105-3.202
		c0.012-0.946,0.106-1.856,0.277-2.745c0.163-0.879,0.556-1.698,1.173-2.444c0.627-0.761,1.305-1.159,2.051-1.211
		c0.742-0.047,1.489,0.022,2.25,0.208c0.757,0.187,1.427,0.701,2.001,1.535c0.58,0.83,2.298,8.189,5.148,22.088
		C103.73,83.246,104.465,83.119,105.503,83.044"/>
	<path fill-rule="evenodd" clip-rule="evenodd" fill="#005BAA" d="M132.068,91.123c0.518,0.152,1.191,0.338,2.016,0.566
		c0.816,0.232,1.382,0.656,1.689,1.285c0.303,0.621,0.463,1.41,0.476,2.355c0.016,0.951-0.466,1.939-1.413,2.988
		c-0.957,1.033-1.617,1.629-1.984,1.793c-0.375,0.168-0.962,0.289-1.79,0.385c-0.813,0.088-1.593,0.219-2.33,0.385
		c-0.746,0.164-1.524,0.771-2.327,1.801c-0.803,1.043-1.204,2.035-1.188,2.979c0.012,0.951,0.09,1.65,0.252,2.129
		c0.149,0.48,0.565,0.82,1.233,1.051c0.682,0.232,1.309,0.221,1.902-0.031c0.593-0.232,1.218-0.76,1.875-1.562
		c0.664-0.787,1.171-1.781,1.524-2.973c0.359-1.195,0.759-2.141,1.196-2.854c0.438-0.727,1.062-1.561,1.866-2.516
		c0.805-0.957,1.584-1.562,2.325-1.809c0.743-0.25,1.48-0.059,2.236,0.568c0.753,0.617,1.356,1.367,1.822,2.221
		c0.455,0.867,0.933,3.666,1.439,8.396c0.504,4.73,0.619,7.648,0.331,8.762c-0.282,1.105-0.712,2.023-1.3,2.742
		c-0.584,0.715-1.25,1.078-1.992,1.086c-0.753,0.01-1.456-0.023-2.13-0.088c-0.669-0.07-1.152-0.383-1.458-0.928
		c-0.314-0.553-0.617-1.377-0.927-2.469c-0.32-1.113-0.768-1.461-1.356-1.059c-0.591,0.398-1.03,0.766-1.326,1.088
		c-0.292,0.314-0.921,0.715-1.885,1.199c-0.962,0.494-1.885,0.744-2.774,0.75c-0.895,0.018-2.059-0.014-3.465-0.07
		c-1.414-0.061-2.613-0.48-3.591-1.266c-0.98-0.77-2-1.82-3.058-3.158c-1.054-1.324-1.671-2.902-1.845-4.713
		c-0.17-1.816,0.029-3.785,0.592-5.92c0.565-2.146,1.365-4.17,2.382-6.078c1.021-1.91,2.344-3.469,3.959-4.674
		c1.628-1.207,3.321-2.129,5.105-2.791C130.237,90.83,131.541,90.966,132.068,91.123"/>
	<path fill-rule="evenodd" clip-rule="evenodd" fill="#005BAA" d="M147.96,110.775c0.187-8.213,0.616-12.805,1.271-13.762
		c0.655-0.949,1.539-1.559,2.65-1.809c1.118-0.246,2.121-0.307,3.013-0.152c0.896,0.148,1.574,0.406,2.026,0.795
		c0.45,0.396,0.718,0.83,0.799,1.299c0.083,0.471,0.129,0.99,0.138,1.533c-0.003,0.561,0.82,0.623,2.451,0.215
		c1.633-0.418,3.158-0.35,4.584,0.17c1.419,0.545,2.624,1.627,3.613,3.279c0.989,1.648,1.646,3.648,1.973,6.014
		c0.338,2.365,0.424,4.301,0.305,5.797c-0.137,1.514-0.492,2.697-1.074,3.576c-0.589,0.873-1.254,1.432-1.989,1.68
		c-0.746,0.248-1.446,0.367-2.119,0.379c-0.671,0.008-1.234-0.178-1.685-0.576c-0.447-0.383-0.982-0.965-1.583-1.748
		c-0.606-0.781-0.916-1.721-0.929-2.836c-0.017-1.102-0.025-2.092-0.04-2.953c-0.01-0.879-0.278-1.424-0.804-1.652
		c-0.525-0.234-0.973-0.305-1.341-0.219c-0.376,0.08-0.737,0.363-1.111,0.842c-0.351,0.477-0.537,1.109-0.532,1.904
		c0.007,0.787,0.021,1.693,0.04,2.723c0.012,1.027-0.161,1.939-0.526,2.732c-0.362,0.795-0.731,1.389-1.094,1.795
		c-0.363,0.393-0.884,0.639-1.549,0.73c-0.669,0.084-1.495,0.094-2.463,0.029c-0.966-0.074-1.754-0.533-2.362-1.395
		c-0.61-0.859-1.033-1.721-1.258-2.59c-0.242-0.867-0.357-1.93-0.367-3.193C147.974,112.115,147.961,111.255,147.96,110.775"/>
	<path fill-rule="evenodd" clip-rule="evenodd" fill="#005BAA" d="M189.285,85.011c0.058-6.789,0.338-10.816,0.849-12.088
		c0.505-1.268,1.199-2.23,2.084-2.869c0.886-0.647,1.782-0.852,2.675-0.633c0.896,0.23,1.647,0.727,2.251,1.52
		c0.61,0.773,1.029,1.682,1.266,2.701c0.23,1.027,0.114,6.125-0.371,15.285c-0.47,9.178-0.689,15.611-0.643,19.316
		c0.042,3.711-0.003,5.928-0.144,6.641c-0.132,0.713-0.575,1.314-1.32,1.795c-0.735,0.475-1.549,0.729-2.438,0.74
		c-0.901,0.012-1.805-0.404-2.704-1.266c-0.9-0.859-1.475-1.758-1.704-2.705c-0.24-0.943-0.354-1.693-0.357-2.25
		c-0.008-0.551-0.347-0.508-1.01,0.131c-0.66,0.654-1.474,1.131-2.44,1.459c-0.964,0.326-1.965,0.418-3.008,0.277
		c-1.05-0.154-2.171-0.371-3.359-0.67c-1.198-0.301-2.287-1.16-3.276-2.561c-0.983-1.414-1.604-3.1-1.847-5.076
		c-0.256-1.975-0.276-3.904-0.073-5.801c0.193-1.908,0.992-3.766,2.38-5.604c1.396-1.838,2.75-3.389,4.073-4.672
		c1.321-1.281,2.69-2.045,4.103-2.301c1.42-0.258,2.381-0.381,2.902-0.391c0.523-0.008,0.929,0.066,1.231,0.221
		C188.706,86.361,189,85.966,189.285,85.011 M184.297,97.164c-1.028,0.961-1.84,1.754-2.427,2.4
		c-0.589,0.641-0.88,1.227-0.862,1.783c0,0.553,0.23,1.064,0.688,1.527c0.453,0.477,1.123,0.701,2.017,0.693
		c0.9-0.016,1.743-0.541,2.542-1.572c0.807-1.045,1.396-1.949,1.756-2.746c0.36-0.801,0.39-1.51,0.083-2.139
		c-0.306-0.625-0.639-0.939-1.013-0.936C186.71,96.183,185.778,96.517,184.297,97.164"/>
	<path fill-rule="evenodd" clip-rule="evenodd" fill="#005BAA" d="M212.508,89.041c1.191,0.225,2.433,0.812,3.731,1.791
		c1.303,0.969,2.439,2.139,3.423,3.51c0.984,1.367,1.502,3.33,1.532,5.873c0.03,2.547-0.12,4.637-0.434,6.285
		c-0.309,1.641-0.967,3.172-1.976,4.578c-0.999,1.422-2.352,2.26-4.014,2.516c-1.676,0.258-3.186,0.354-4.548,0.291
		c-1.358-0.057-2.772-0.611-4.23-1.664c-1.468-1.041-2.599-2.215-3.404-3.51c-0.799-1.289-1.203-2.928-1.23-4.898
		c-0.03-1.973,0.026-3.785,0.152-5.43c0.134-1.635,0.672-3.205,1.62-4.697c0.941-1.494,2.923-3.061,5.914-4.723
		C210.166,88.794,211.313,88.81,212.508,89.041 M210.16,102.339c-0.064,0.557-0.065,1.061,0.019,1.537
		c0.089,0.473,0.422,0.748,1.012,0.822c0.6,0.061,0.975-0.178,1.118-0.727c0.142-0.559,0.24-1.15,0.313-1.781
		c0.06-0.629,0.095-1.15,0.088-1.545c-0.004-0.398-0.155-0.592-0.455-0.592c-0.296,0.004-0.674,0.014-1.124,0.02
		C210.556,101.033,210.228,101.783,210.16,102.339"/>
	<path fill-rule="evenodd" clip-rule="evenodd" fill="#ED1C24" d="M153.092,21.105c1.588-0.326,3.52-0.252,5.819,0.242
		c2.303,0.496,4.326,1.076,6.078,1.758c1.749,0.678,3.027,1.504,3.821,2.483c0.797,0.974-1.664,10.023-7.384,27.153
		c1.046,0.575,1.947,1.045,2.688,1.396c0.74,0.364,1.316,1.089,1.712,2.171c0.389,1.087,0.596,2.352,0.625,3.805
		c0.028,1.444-0.21,2.571-0.713,3.365c-0.499,0.807-1.282,1.514-2.338,2.135c-1.061,0.625-1.895,0.952-2.528,0.992
		c-0.621,0.037-2.642-0.005-6.047-0.129c-0.534,2.465-3.07,13.764-3.559,15.287c-0.483,1.523-1.197,2.977-2.131,4.359
		c-0.928,1.383-2.119,2.016-3.562,1.912c-1.448-0.098-2.843-0.541-4.188-1.33c-1.347-0.789-2.38-1.781-3.1-2.971
		c-0.727-1.193-0.697-3.221,0.1-6.092c0.792-2.861,3.141-13.619,3.036-13.648c-0.112-0.037-0.501-0.166-1.169-0.381
		c-0.676-0.21-1.716-0.781-3.139-1.723c-1.429-0.922-1.957-2.537-1.601-4.826c0.364-2.283,0.979-4.006,1.847-5.173
		c0.853-1.161,1.918-1.784,3.174-1.866c1.251-0.072,2.858-0.105,4.822-0.074c1.949,0.023,2.957-0.016,2.984-0.129
		c0.038-0.109,0.215-0.472,0.53-1.084c0.323-0.622,1.078-2.779,2.255-6.486c1.186-3.695,1.809-5.842,1.868-6.412
		c0.059-0.585-0.24-0.984-0.907-1.199c-0.675-0.215-1.925-0.311-3.771-0.301c-1.856,0.005-3.786,0.294-5.808,0.841
		c-2.021,0.557-4.185,0.581-6.485,0.089c-2.293-0.488-4.07-1.296-5.315-2.414c-1.24-1.121-1.675-2.638-1.306-4.561
		c0.363-1.92,1.216-3.625,2.553-5.119c1.34-1.489,6.223-1.973,14.664-1.438C149.35,21.652,151.512,21.441,153.092,21.105"/>
	<path fill-rule="evenodd" clip-rule="evenodd" fill="#FAA61A" d="M132.915,84.281c0.982-0.002,0.587,0.004,1.232-0.34
		c0.55-8.859,0.169-13.107-3.533-20.605c-3.017-5.203-4.728-11.084,1.125-14.766c3.579-2.011,12.107-1.463,12.039-7.035
		c-0.062-4.593-10.524-2.49-14.485-4.732c-6.598-3.523-7.34-10.066-1.493-14.737c6.159-4.993,14.739-0.515,21.255-3.542
		c-3.312-2.908-21.413-8.906-24.67-7.223c-4.567,2.022-5.38,15.472-6.313,19.419c-2.191,7.893-3.081,15.446-4.954,23.008
		c-1.228,6.242-13.224,16.232-6.628,20.402c2.655,1.934,8.546,1.529,12.166,2.797c4.939,1.58,9.241,4.475,13.533,7.037
		L132.915,84.281z"/>
	<path fill-rule="evenodd" clip-rule="evenodd" fill="#FAA61A" d="M189.297,31.209c-2.671-0.843-5.59-1.567-8.229-2.521
		c-3.947-1.256-6.276-4.174-7.544,0.098c-1.251,4.281,1.383,5.557-1.509,9.523c-1.285,2.641-4.527,4.975-5.148,7.934
		c-0.597,4.27,2.391,6.861,3.745,10.774c1.352,3.915,1.754,9.153-2.141,12.155c-3.256,2.002-6.697,0.842-10.104,1.354
		c-2.53,0.363-3.68,11.451-3.975,14.061c-0.59,4.934,0.574,5.41,4.21,7.654c1.655,1.295,8.585,4.809,10.22,4.127
		c1.294-0.668,2.549-4.943,2.862-6.256c2.233-5.281,3.793-11.193,5.691-16.795c4.435-12.182,4.195-30.869,12.58-41.135
		C189.956,32.183,190.585,31.619,189.297,31.209"/>
	<path fill-rule="evenodd" clip-rule="evenodd" fill="#ED1C24" d="M29.863,128.808c0.394,0.051,0.797,0.18,1.225,0.391
		c0.43,0.205,0.796,0.471,1.118,0.766c0.319,0.314,0.488,0.732,0.495,1.295c0.005,0.562-0.048,1.02-0.154,1.385
		c-0.102,0.361-0.321,0.699-0.647,1.008c-0.335,0.312-0.775,0.5-1.323,0.564c-0.549,0.051-1.04,0.084-1.492,0.064
		c-0.445-0.012-0.905-0.133-1.382-0.359c-0.478-0.232-0.855-0.482-1.113-0.766c-0.254-0.287-0.387-0.643-0.395-1.078
		c-0.008-0.428,0.018-0.832,0.055-1.197c0.051-0.357,0.224-0.705,0.532-1.033c0.318-0.332,0.965-0.676,1.951-1.043
		C29.099,128.761,29.478,128.759,29.863,128.808 M29.077,131.736c-0.02,0.127-0.014,0.238,0.003,0.348
		c0.031,0.1,0.14,0.16,0.334,0.178c0.197,0.018,0.317-0.047,0.368-0.168c0.045-0.119,0.082-0.248,0.102-0.387
		c0.021-0.143,0.035-0.254,0.032-0.342l-0.143-0.129c-0.099-0.004-0.229-0.002-0.372,0.004
		C29.212,131.453,29.102,131.621,29.077,131.736"/>
	<path fill-rule="evenodd" clip-rule="evenodd" fill="#ED1C24" d="M33.562,133.126c0.069-1.807,0.219-2.814,0.431-3.027
		c0.218-0.221,0.513-0.346,0.88-0.4c0.368-0.061,0.69-0.07,0.986-0.049c0.292,0.037,0.508,0.09,0.658,0.178
		c0.147,0.082,0.233,0.176,0.262,0.287c0.028,0.102,0.041,0.215,0.043,0.334c-0.003,0.125,0.265,0.137,0.802,0.045
		c0.536-0.096,1.036-0.084,1.499,0.031c0.466,0.111,0.858,0.355,1.178,0.721c0.319,0.355,0.543,0.797,0.641,1.318
		c0.102,0.516,0.131,0.945,0.084,1.275c-0.038,0.338-0.158,0.592-0.348,0.793c-0.196,0.188-0.415,0.311-0.659,0.367
		c-0.237,0.051-0.468,0.084-0.691,0.092c-0.22-0.006-0.406-0.039-0.554-0.131c-0.143-0.086-0.317-0.209-0.513-0.383
		c-0.195-0.164-0.3-0.385-0.298-0.617c-0.007-0.246-0.008-0.465-0.012-0.658c-0.004-0.195-0.09-0.307-0.256-0.357
		c-0.175-0.049-0.322-0.062-0.45-0.047c-0.119,0.02-0.233,0.078-0.354,0.188c-0.119,0.102-0.184,0.242-0.181,0.418
		c0.003,0.168,0.005,0.369,0.008,0.6c0.002,0.221-0.055,0.424-0.174,0.598c-0.13,0.184-0.237,0.312-0.359,0.396
		c-0.119,0.09-0.296,0.141-0.513,0.164c-0.219,0.016-0.486,0.023-0.8,0.012c-0.316-0.018-0.575-0.117-0.777-0.301
		c-0.197-0.191-0.331-0.379-0.41-0.572c-0.07-0.193-0.111-0.42-0.113-0.703C33.567,133.417,33.565,133.23,33.562,133.126"/>
	<path fill-rule="evenodd" clip-rule="evenodd" fill="#ED1C24" d="M47.122,126.958c0.032-1.504,0.132-2.389,0.301-2.67
		c0.17-0.277,0.394-0.49,0.684-0.639c0.291-0.133,0.585-0.186,0.877-0.135c0.294,0.047,0.538,0.154,0.735,0.332
		c0.198,0.172,0.334,0.365,0.417,0.588c0.069,0.23,0.024,1.348-0.148,3.373c-0.168,2.016-0.255,3.434-0.243,4.254
		c0.008,0.812-0.003,1.295-0.051,1.457c-0.045,0.158-0.192,0.285-0.431,0.391c-0.241,0.102-0.511,0.164-0.806,0.17
		c-0.289,0.002-0.582-0.096-0.879-0.27c-0.296-0.199-0.482-0.389-0.555-0.6c-0.077-0.199-0.116-0.365-0.12-0.486
		c-0.001-0.127-0.108-0.117-0.327,0.023c-0.214,0.141-0.483,0.246-0.798,0.328c-0.314,0.068-0.644,0.088-0.985,0.062
		c-0.346-0.025-0.712-0.078-1.103-0.145c-0.389-0.066-0.753-0.252-1.071-0.561c-0.315-0.311-0.515-0.682-0.594-1.115
		c-0.079-0.432-0.085-0.855-0.018-1.271c0.072-0.422,0.335-0.836,0.794-1.234c0.457-0.41,0.902-0.754,1.338-1.039
		c0.436-0.281,0.884-0.457,1.344-0.512c0.463-0.051,0.778-0.09,0.95-0.092c0.167,0.002,0.304,0.018,0.399,0.049
		C46.941,127.257,47.032,127.164,47.122,126.958 M45.473,129.636c-0.334,0.211-0.599,0.389-0.791,0.529
		c-0.198,0.139-0.29,0.27-0.286,0.395c-0.001,0.123,0.073,0.234,0.216,0.336c0.151,0.104,0.374,0.15,0.668,0.145
		c0.288-0.004,0.572-0.115,0.834-0.348c0.261-0.225,0.458-0.434,0.572-0.604c0.124-0.176,0.131-0.33,0.028-0.471
		c-0.094-0.137-0.205-0.207-0.324-0.207C46.265,129.416,45.959,129.488,45.473,129.636"/>
	<path fill-rule="evenodd" clip-rule="evenodd" fill="#ED1C24" d="M52.99,128.582c0.245-0.158,0.656-0.316,1.238-0.484
		c0.582-0.162,1.047-0.242,1.384-0.227c0.352,0.014,0.688,0.09,1.031,0.246c0.342,0.152,0.591,0.336,0.741,0.568
		c0.146,0.221,0.245,0.559,0.311,1.031c0.052,0.477,0.035,0.92-0.066,1.332c-0.088,0.418-0.271,0.707-0.539,0.863
		c-0.265,0.164-0.563,0.291-0.907,0.381c-0.337,0.096-0.658,0.148-0.944,0.166c-0.292,0.029-0.359,0.072-0.184,0.164
		c0.17,0.088,0.418,0.18,0.737,0.305c0.313,0.115,0.586,0.195,0.801,0.256c0.225,0.041,0.36,0.197,0.41,0.453
		c0.053,0.264,0.001,0.492-0.169,0.682c-0.171,0.195-0.384,0.314-0.657,0.342c-0.267,0.041-0.56,0.043-0.88,0.014
		c-0.316-0.027-0.655-0.094-1.021-0.195c-0.371-0.092-0.794-0.254-1.289-0.477c-0.49-0.219-0.907-0.445-1.249-0.658
		c-0.347-0.223-0.575-0.586-0.672-1.09c-0.109-0.504-0.137-0.932-0.091-1.307c0.043-0.359,0.404-0.896,1.08-1.598
		C52.435,128.994,52.753,128.736,52.99,128.582 M54.187,130.361c0.001,0.109,0.051,0.182,0.147,0.234
		c0.094,0.053,0.209,0.08,0.33,0.082c0.124-0.008,0.245-0.023,0.37-0.066c0.116-0.031,0.188-0.102,0.213-0.209
		c0.022-0.104,0.007-0.207-0.04-0.312c-0.05-0.109-0.151-0.154-0.292-0.145c-0.154-0.01-0.293,0.016-0.441,0.049
		C54.279,130.136,54.186,130.255,54.187,130.361"/>
	<path fill-rule="evenodd" clip-rule="evenodd" fill="#ED1C24" d="M68.44,128.38c0.247-0.15,0.656-0.316,1.241-0.486
		c0.586-0.158,1.048-0.232,1.384-0.223c0.347,0.016,0.685,0.096,1.029,0.246c0.341,0.154,0.593,0.338,0.739,0.562
		c0.15,0.23,0.248,0.566,0.304,1.041c0.057,0.475,0.038,0.922-0.057,1.332c-0.086,0.422-0.272,0.707-0.539,0.863
		c-0.265,0.164-0.564,0.293-0.91,0.377c-0.341,0.096-0.656,0.152-0.947,0.168c-0.291,0.025-0.352,0.078-0.181,0.162
		c0.175,0.086,0.417,0.191,0.738,0.303c0.321,0.119,0.583,0.207,0.81,0.256c0.212,0.047,0.353,0.203,0.406,0.459
		c0.045,0.264-0.003,0.492-0.174,0.68c-0.173,0.195-0.385,0.316-0.657,0.348c-0.265,0.043-0.556,0.043-0.877,0.012
		c-0.319-0.029-0.661-0.096-1.023-0.193c-0.365-0.102-0.798-0.254-1.291-0.475c-0.488-0.225-0.904-0.447-1.246-0.668
		c-0.347-0.221-0.571-0.584-0.676-1.09c-0.106-0.502-0.13-0.93-0.089-1.305c0.042-0.359,0.405-0.898,1.08-1.596
		C67.88,128.8,68.199,128.546,68.44,128.38 M69.64,130.167c-0.003,0.102,0.048,0.184,0.146,0.234
		c0.095,0.045,0.208,0.08,0.326,0.074c0.121,0,0.242-0.02,0.366-0.064c0.125-0.033,0.193-0.1,0.219-0.213
		c0.029-0.102,0.006-0.201-0.046-0.303c-0.048-0.113-0.143-0.154-0.293-0.152c-0.145,0.002-0.295,0.025-0.435,0.053
		C69.731,129.943,69.634,130.062,69.64,130.167"/>
	<path fill-rule="evenodd" clip-rule="evenodd" fill="#ED1C24" d="M87.17,126.445c0.03-1.496,0.13-2.381,0.294-2.666
		c0.168-0.273,0.397-0.486,0.685-0.633c0.298-0.139,0.592-0.188,0.879-0.135c0.298,0.045,0.543,0.154,0.736,0.328
		c0.194,0.168,0.332,0.363,0.412,0.59c0.074,0.223,0.024,1.346-0.138,3.369c-0.176,2.016-0.254,3.432-0.244,4.252
		c0.014,0.818-0.006,1.299-0.055,1.461c-0.043,0.158-0.187,0.287-0.436,0.396c-0.241,0.102-0.511,0.156-0.799,0.162
		c-0.289,0.002-0.591-0.086-0.884-0.271c-0.29-0.195-0.477-0.383-0.554-0.594c-0.076-0.205-0.117-0.367-0.118-0.49
		c0-0.123-0.109-0.117-0.323,0.023c-0.218,0.145-0.486,0.25-0.811,0.326c-0.31,0.068-0.643,0.086-0.982,0.062
		c-0.34-0.029-0.705-0.074-1.102-0.139c-0.384-0.07-0.742-0.256-1.067-0.564c-0.318-0.309-0.519-0.684-0.595-1.109
		c-0.077-0.436-0.084-0.861-0.021-1.271c0.073-0.424,0.332-0.84,0.794-1.242c0.461-0.406,0.904-0.758,1.34-1.033
		c0.438-0.285,0.883-0.451,1.346-0.516c0.466-0.055,0.779-0.088,0.954-0.092c0.161,0.004,0.304,0.02,0.399,0.053
		C86.982,126.746,87.074,126.654,87.17,126.445 M85.522,129.128c-0.332,0.207-0.605,0.391-0.792,0.527
		c-0.2,0.141-0.297,0.275-0.294,0.395c0.002,0.121,0.071,0.238,0.228,0.338c0.144,0.104,0.359,0.15,0.653,0.145
		c0.294-0.004,0.579-0.119,0.844-0.344c0.256-0.234,0.457-0.441,0.567-0.609c0.128-0.176,0.143-0.332,0.036-0.467
		c-0.1-0.139-0.208-0.215-0.33-0.211C86.31,128.904,86.011,128.98,85.522,129.128"/>
	<path fill-rule="evenodd" clip-rule="evenodd" fill="#ED1C24" d="M91.621,124.523l-0.034-0.158l-0.036-0.152
		c0-0.07,0.015-0.16,0.032-0.262c0.021-0.105,0.162-0.24,0.43-0.406c0.267-0.172,0.558-0.285,0.869-0.346
		c0.309-0.064,0.61-0.057,0.904,0.006c0.285,0.078,0.53,0.152,0.718,0.242c0.181,0.086,0.37,0.193,0.562,0.32
		c0.187,0.135,0.313,0.283,0.375,0.436c0.067,0.17,0.097,0.348,0.1,0.537c0.005,0.186-0.054,0.434-0.174,0.711
		c-0.119,0.279-0.306,0.502-0.554,0.674c-0.243,0.162-0.504,0.279-0.771,0.336c-0.268,0.066-0.478,0.102-0.621,0.102
		c-0.154,0.004-0.375-0.002-0.684-0.016c-0.314-0.006-0.586-0.057-0.816-0.143c-0.228-0.082-0.419-0.203-0.592-0.346
		c-0.172-0.146-0.251-0.303-0.254-0.465c-0.005-0.16,0.026-0.307,0.087-0.443c0.062-0.133,0.148-0.324,0.273-0.561
		C91.556,124.619,91.621,124.599,91.621,124.523 M92.119,129.216c-0.003-0.117-0.015-0.23-0.048-0.312
		c-0.023-0.09-0.059-0.189-0.111-0.287c-0.043-0.104-0.072-0.209-0.073-0.312c-0.002-0.104,0.029-0.225,0.101-0.363
		c0.073-0.143,0.178-0.242,0.322-0.299c0.153-0.049,0.361-0.088,0.633-0.109c0.257-0.02,0.479-0.021,0.649-0.014
		c0.177,0.02,0.417,0.102,0.739,0.258c0.317,0.162,0.53,0.371,0.626,0.643c0.106,0.277,0.131,0.783,0.095,1.539
		c-0.042,0.75-0.107,1.459-0.191,2.141c-0.085,0.676-0.219,1.127-0.381,1.359c-0.176,0.234-0.412,0.357-0.727,0.4
		c-0.323,0.041-0.655,0.037-0.995-0.01c-0.337-0.055-0.577-0.119-0.729-0.205c-0.151-0.08-0.287-0.221-0.407-0.404
		c-0.126-0.193-0.154-0.459-0.084-0.807c0.072-0.354,0.191-0.67,0.39-0.945c0.188-0.277,0.275-0.855,0.266-1.727
		C92.146,129.521,92.119,129.337,92.119,129.216"/>
	<path fill-rule="evenodd" clip-rule="evenodd" fill="#ED1C24" d="M100.075,130.201c0.102,0.098,0.223,0.152,0.371,0.148
		c0.142-0.004,0.245-0.018,0.294-0.059c0.042-0.033,0.066-0.119,0.064-0.266c0.001-0.133,0.03-0.723,0.089-1.766
		c0.062-1.047,0.089-1.74,0.084-2.088c-0.007-0.346,0.032-0.615,0.099-0.812c0.071-0.189,0.181-0.389,0.324-0.6
		c0.146-0.211,0.3-0.342,0.471-0.373c0.167-0.039,0.415-0.029,0.73,0.016c0.316,0.053,0.624,0.145,0.917,0.279
		c0.294,0.137,0.439,0.316,0.442,0.566c0.002,0.244-0.21,1.412-0.644,3.498c-0.444,2.094-0.742,3.314-0.911,3.668
		c-0.162,0.344-0.393,0.607-0.681,0.785c-0.291,0.182-0.581,0.297-0.877,0.355c-0.287,0.053-0.583,0.059-0.875,0.031
		c-0.293-0.027-0.598-0.156-0.917-0.375c-0.316-0.221-0.73-0.867-1.234-1.918c-0.498-1.049-0.802-1.85-0.904-2.387
		c-0.101-0.543-0.159-0.99-0.164-1.373c-0.006-0.387,0.084-0.684,0.246-0.895c0.169-0.203,0.345-0.357,0.541-0.449
		c0.196-0.09,0.426-0.113,0.692-0.088c0.273,0.031,0.517,0.193,0.736,0.486c0.224,0.293,0.523,1.381,0.888,3.248
		C99.904,129.972,99.978,130.103,100.075,130.201"/>
	<path fill-rule="evenodd" clip-rule="evenodd" fill="#ED1C24" d="M106.699,127.898c0.234-0.16,0.651-0.322,1.237-0.486
		c0.581-0.16,1.039-0.236,1.389-0.225c0.336,0.018,0.678,0.088,1.023,0.25c0.341,0.145,0.588,0.336,0.736,0.562
		c0.153,0.221,0.257,0.562,0.313,1.039c0.05,0.471,0.038,0.912-0.059,1.33c-0.093,0.414-0.272,0.703-0.539,0.871
		c-0.267,0.152-0.571,0.285-0.911,0.371c-0.342,0.096-0.656,0.148-0.947,0.17c-0.299,0.021-0.358,0.07-0.182,0.152
		c0.165,0.096,0.418,0.191,0.737,0.307c0.313,0.117,0.579,0.197,0.808,0.256c0.222,0.047,0.356,0.203,0.407,0.459
		c0.049,0.266-0.009,0.494-0.177,0.684c-0.166,0.195-0.387,0.312-0.658,0.346c-0.267,0.041-0.558,0.041-0.878,0.018
		c-0.311-0.041-0.652-0.105-1.023-0.205c-0.365-0.094-0.799-0.252-1.289-0.473c-0.489-0.227-0.899-0.451-1.246-0.666
		c-0.349-0.223-0.574-0.586-0.673-1.09c-0.108-0.494-0.135-0.934-0.091-1.301c0.043-0.363,0.405-0.902,1.072-1.598
		C106.139,128.314,106.459,128.054,106.699,127.898 M107.89,129.681c0.002,0.105,0.057,0.18,0.146,0.234
		c0.102,0.055,0.213,0.076,0.33,0.074c0.12-0.004,0.249-0.025,0.372-0.059c0.122-0.037,0.193-0.107,0.216-0.215
		c0.022-0.104,0.009-0.207-0.043-0.305c-0.057-0.107-0.144-0.158-0.296-0.158c-0.142,0.004-0.286,0.025-0.441,0.053
		C107.981,129.457,107.885,129.572,107.89,129.681"/>
	<path fill-rule="evenodd" clip-rule="evenodd" fill="#ED1C24" d="M112.193,131.22c0.002-0.158,0-0.326-0.007-0.5
		c0-0.164-0.002-0.363-0.006-0.568c-0.004-0.207,0.004-0.416,0.024-0.633c0.025-0.211,0.069-0.449,0.139-0.752
		c0.071-0.295,0.138-0.521,0.212-0.682c0.069-0.156,0.254-0.336,0.538-0.549c0.294-0.219,0.557-0.357,0.801-0.432
		c0.239-0.074,0.498-0.148,0.77-0.219c0.268-0.072,0.569-0.123,0.91-0.141c0.343-0.016,0.603-0.012,0.802,0.047
		c0.199,0.041,0.457,0.125,0.775,0.24c0.315,0.119,0.562,0.32,0.738,0.598c0.172,0.279,0.229,0.553,0.152,0.826
		c-0.06,0.281-0.14,0.461-0.21,0.553c-0.073,0.086-0.193,0.131-0.36,0.137c-0.172,0.002-0.402-0.02-0.691-0.07
		c-0.298-0.049-0.583-0.053-0.846-0.039c-0.27,0.021-0.499,0.098-0.698,0.238c-0.191,0.137-0.296,0.311-0.317,0.504
		c-0.02,0.195,0.053,0.447,0.231,0.775c0.174,0.33,0.417,0.867,0.751,1.607c0.327,0.744,0.49,1.289,0.494,1.637
		c0.009,0.346-0.092,0.646-0.281,0.891c-0.193,0.248-0.4,0.418-0.616,0.529c-0.218,0.107-0.491,0.119-0.836,0.037
		c-0.346-0.084-0.578-0.199-0.703-0.363c-0.121-0.148-0.587-1.059-1.389-2.719C112.327,131.699,112.198,131.378,112.193,131.22"/>
	<path fill-rule="evenodd" clip-rule="evenodd" fill="#ED1C24" d="M124.521,125.916c0.351-0.002,0.696,0.008,1.064,0.018
		c0.364,0.014,0.742,0.086,1.129,0.221c0.396,0.133,0.592,0.271,0.593,0.414c0.004,0.129-0.007,0.322-0.031,0.547
		c-0.021,0.223-0.196,0.439-0.543,0.631c-0.338,0.195-0.693,0.318-1.085,0.377s-0.898,0.109-1.536,0.15
		c0.252,0.934,0.547,1.871,0.881,2.805c0.333,0.932,0.506,1.715,0.535,2.314c0.042,0.607-0.032,0.969-0.202,1.072
		c-0.169,0.111-0.375,0.207-0.619,0.295c-0.245,0.098-0.5,0.127-0.757,0.111c-0.28-0.012-0.558-0.072-0.852-0.168
		c-0.298-0.105-0.53-0.398-0.705-0.877c-0.182-0.492-0.582-2.355-1.21-5.617c-0.536,0.008-0.899,0.002-1.094-0.018
		c-0.193-0.01-0.404-0.045-0.62-0.092c-0.228-0.049-0.418-0.141-0.591-0.275c-0.172-0.145-0.26-0.264-0.261-0.365
		c0-0.104,0.006-0.264,0.037-0.475c0.015-0.203,0.132-0.381,0.351-0.518c0.216-0.154,0.416-0.23,0.582-0.271
		c0.173-0.041,0.577-0.066,1.215-0.072c-0.615-2.01-0.917-3.139-0.928-3.398c-0.003-0.264,0.002-0.5,0.028-0.709
		c0.025-0.203,0.069-0.408,0.141-0.604c0.072-0.189,0.212-0.361,0.427-0.52c0.217-0.162,0.448-0.244,0.69-0.24
		c0.248-0.002,0.499,0.014,0.742,0.062c0.241,0.051,0.447,0.174,0.622,0.359c0.18,0.186,0.601,1.826,1.269,4.91
		C123.936,125.943,124.179,125.923,124.521,125.916"/>
	<path fill-rule="evenodd" clip-rule="evenodd" fill="#ED1C24" d="M128.627,123.89l-0.034-0.15l-0.032-0.162
		c-0.001-0.07,0.01-0.152,0.023-0.26c0.024-0.1,0.172-0.234,0.437-0.402c0.265-0.17,0.554-0.285,0.863-0.346
		c0.309-0.068,0.613-0.061,0.907,0.012c0.291,0.064,0.52,0.143,0.717,0.23c0.186,0.082,0.372,0.191,0.562,0.33
		c0.191,0.133,0.309,0.275,0.378,0.436c0.062,0.16,0.094,0.34,0.099,0.523c0.002,0.199-0.054,0.439-0.175,0.719
		c-0.122,0.277-0.31,0.506-0.556,0.672c-0.242,0.158-0.499,0.277-0.769,0.348c-0.273,0.059-0.479,0.09-0.623,0.09
		c-0.142-0.002-0.365,0.004-0.683-0.014c-0.313-0.01-0.582-0.059-0.813-0.145c-0.226-0.082-0.422-0.207-0.593-0.348
		c-0.164-0.148-0.247-0.297-0.248-0.461c-0.004-0.16,0.02-0.307,0.079-0.445c0.062-0.129,0.151-0.312,0.277-0.561
		C128.568,123.992,128.626,123.966,128.627,123.89 M129.122,128.748c-0.001-0.127-0.012-0.229-0.034-0.311
		c-0.033-0.094-0.063-0.186-0.114-0.293c-0.054-0.098-0.081-0.205-0.077-0.305c-0.007-0.107,0.029-0.227,0.104-0.371
		c0.07-0.135,0.174-0.234,0.323-0.289c0.151-0.059,0.352-0.094,0.624-0.117c0.268-0.016,0.479-0.016,0.653-0.004
		c0.174,0.014,0.415,0.096,0.74,0.252c0.318,0.152,0.521,0.369,0.629,0.637c0.099,0.281,0.134,0.801,0.092,1.543
		c-0.04,0.748-0.105,1.459-0.192,2.133c-0.091,0.686-0.218,1.143-0.389,1.373c-0.163,0.227-0.404,0.354-0.722,0.396
		c-0.322,0.029-0.646,0.033-0.99-0.014c-0.343-0.049-0.59-0.113-0.732-0.199c-0.149-0.082-0.282-0.229-0.405-0.412
		c-0.125-0.188-0.156-0.459-0.086-0.807c0.068-0.352,0.2-0.666,0.387-0.943c0.193-0.285,0.285-0.859,0.272-1.727
		C129.156,129.048,129.126,128.859,129.122,128.748"/>
	<path fill-rule="evenodd" clip-rule="evenodd" fill="#ED1C24" d="M138.938,125.787c0.025-1.494,0.124-2.381,0.297-2.662
		c0.164-0.277,0.396-0.49,0.684-0.637c0.294-0.141,0.581-0.188,0.874-0.141c0.291,0.049,0.545,0.156,0.739,0.33
		c0.197,0.18,0.332,0.371,0.407,0.594c0.075,0.227,0.027,1.342-0.134,3.365c-0.173,2.02-0.255,3.434-0.241,4.254
		c0.013,0.814-0.011,1.303-0.063,1.459c-0.037,0.17-0.183,0.287-0.428,0.4c-0.234,0.104-0.506,0.162-0.804,0.164
		c-0.29,0.004-0.579-0.094-0.877-0.275c-0.301-0.191-0.484-0.385-0.561-0.594c-0.079-0.201-0.109-0.373-0.109-0.492
		c-0.002-0.119-0.119-0.115-0.337,0.029c-0.213,0.143-0.48,0.248-0.798,0.328c-0.318,0.07-0.647,0.088-0.989,0.061
		c-0.337-0.029-0.702-0.078-1.092-0.145c-0.399-0.064-0.754-0.25-1.064-0.562c-0.329-0.309-0.526-0.674-0.602-1.111
		c-0.083-0.428-0.091-0.857-0.022-1.266c0.069-0.426,0.333-0.846,0.79-1.242c0.458-0.414,0.907-0.748,1.344-1.035
		c0.43-0.281,0.88-0.455,1.342-0.514s0.773-0.09,0.947-0.088c0.177-0.004,0.312,0.018,0.41,0.047
		C138.738,126.093,138.849,125.994,138.938,125.787 M137.285,128.466c-0.335,0.213-0.595,0.395-0.793,0.533
		c-0.195,0.141-0.289,0.271-0.29,0.391c-0.003,0.123,0.084,0.238,0.224,0.338c0.147,0.107,0.363,0.152,0.662,0.146
		c0.286,0.002,0.573-0.117,0.841-0.352c0.26-0.229,0.45-0.422,0.571-0.605c0.119-0.174,0.134-0.32,0.032-0.463
		c-0.103-0.143-0.215-0.215-0.329-0.211C138.082,128.246,137.778,128.322,137.285,128.466"/>
	<path fill-rule="evenodd" clip-rule="evenodd" fill="#ED1C24" d="M146.549,127.328c0.383,0.049,0.797,0.182,1.214,0.385
		c0.423,0.217,0.798,0.475,1.12,0.779c0.321,0.301,0.487,0.725,0.495,1.285c0.009,0.564-0.041,1.021-0.15,1.387
		c-0.108,0.361-0.324,0.701-0.656,1.012c-0.333,0.311-0.763,0.496-1.321,0.559c-0.55,0.051-1.039,0.084-1.486,0.066
		c-0.441-0.014-0.902-0.135-1.386-0.359c-0.475-0.23-0.849-0.482-1.104-0.77c-0.263-0.279-0.394-0.637-0.4-1.08
		c0-0.428,0.014-0.828,0.057-1.193c0.042-0.357,0.227-0.699,0.535-1.035c0.308-0.328,0.959-0.678,1.944-1.043
		C145.775,127.275,146.153,127.279,146.549,127.328 M145.756,130.259c-0.02,0.121-0.016,0.236,0.005,0.344
		c0.03,0.098,0.139,0.158,0.332,0.174c0.193,0.018,0.319-0.039,0.363-0.164c0.052-0.121,0.083-0.246,0.104-0.389
		c0.026-0.141,0.034-0.256,0.03-0.336c0.003-0.09-0.043-0.131-0.143-0.137c-0.098,0.004-0.218,0.006-0.366,0.008
		C145.888,129.974,145.783,130.138,145.756,130.259"/>
	<path fill-rule="evenodd" clip-rule="evenodd" fill="#ED1C24" d="M163.308,127.042c0.171,0.029,0.396,0.07,0.663,0.123
		c0.263,0.051,0.447,0.137,0.548,0.275c0.103,0.139,0.153,0.312,0.156,0.521c0.004,0.209-0.153,0.432-0.46,0.66
		c-0.32,0.23-0.54,0.371-0.664,0.396c-0.119,0.041-0.311,0.061-0.584,0.086c-0.264,0.025-0.517,0.047-0.765,0.088
		c-0.246,0.041-0.502,0.168-0.757,0.404c-0.264,0.221-0.401,0.443-0.399,0.65c0.005,0.213,0.026,0.367,0.079,0.469
		c0.05,0.109,0.185,0.184,0.406,0.23c0.218,0.053,0.427,0.051,0.617-0.008c0.201-0.055,0.4-0.17,0.619-0.35
		c0.224-0.17,0.385-0.391,0.512-0.65c0.11-0.264,0.244-0.479,0.388-0.639c0.143-0.152,0.355-0.34,0.618-0.549
		c0.264-0.211,0.515-0.346,0.762-0.4c0.238-0.061,0.484-0.025,0.729,0.119c0.251,0.137,0.442,0.301,0.601,0.484
		c0.141,0.193,0.297,0.809,0.459,1.852c0.163,1.041,0.19,1.68,0.09,1.93c-0.092,0.236-0.232,0.445-0.425,0.604
		s-0.415,0.234-0.657,0.238c-0.25,0.002-0.473,0-0.693-0.014c-0.224-0.01-0.382-0.082-0.481-0.205
		c-0.095-0.119-0.195-0.301-0.296-0.543c-0.103-0.24-0.25-0.318-0.446-0.234c-0.188,0.094-0.335,0.168-0.435,0.246
		c-0.097,0.064-0.3,0.154-0.611,0.273c-0.324,0.107-0.626,0.152-0.918,0.16c-0.295,0.006-0.673,0.002-1.137-0.01
		c-0.461-0.008-0.855-0.098-1.178-0.273c-0.311-0.17-0.648-0.396-0.987-0.682c-0.35-0.299-0.548-0.645-0.598-1.039
		c-0.059-0.404,0.013-0.84,0.205-1.307c0.187-0.471,0.446-0.924,0.779-1.344c0.338-0.424,0.773-0.768,1.309-1.037
		c0.533-0.264,1.088-0.467,1.675-0.615C162.708,126.982,163.141,127.007,163.308,127.042"/>
	<path fill-rule="evenodd" clip-rule="evenodd" fill="#ED1C24" d="M168.703,126.656c0.241-0.211,0.476-0.357,0.727-0.449
		c0.239-0.088,0.505-0.191,0.798-0.299c0.292-0.104,0.661-0.172,1.097-0.191c0.438-0.023,0.801-0.008,1.099,0.033
		c0.293,0.051,0.611,0.127,0.959,0.225c0.34,0.102,0.69,0.293,1.062,0.592c0.369,0.279,0.656,0.633,0.858,1.055
		c0.189,0.414,0.193,0.957-0.021,1.613c-0.209,0.662-0.521,1.199-0.924,1.604c-0.42,0.406-0.849,0.703-1.311,0.91
		c-0.46,0.193-0.957,0.291-1.491,0.301c-0.538,0.006-0.805,0.016-0.807,0.031c0.001,0.021,0.007,0.168,0.001,0.445
		c0.007,0.27-0.014,0.521-0.06,0.711c-0.046,0.184-0.191,0.371-0.436,0.553c-0.238,0.172-0.523,0.262-0.839,0.268
		c-0.311,0.008-0.583-0.014-0.809-0.07c-0.21-0.049-0.399-0.174-0.548-0.357c-0.146-0.191-0.206-0.547-0.159-1.064
		c0.035-0.527,0.149-2.145,0.309-4.854C168.291,127.218,168.46,126.873,168.703,126.656 M170.75,129.529
		c0.027,0.117,0.049,0.217,0.073,0.287c0.034,0.064,0.105,0.117,0.229,0.156c0.119,0.033,0.283,0.039,0.473,0.035
		c0.195,0.01,0.392-0.049,0.58-0.131c0.201-0.086,0.362-0.195,0.522-0.322c0.134-0.119,0.224-0.256,0.237-0.391
		c0.026-0.135,0.038-0.297,0.037-0.471c-0.001-0.176-0.046-0.385-0.123-0.627c-0.077-0.246-0.234-0.375-0.476-0.408
		c-0.241-0.035-0.508-0.006-0.769,0.086c-0.268,0.092-0.47,0.252-0.582,0.473c-0.112,0.23-0.197,0.502-0.24,0.816
		C170.712,129.24,170.727,129.406,170.75,129.529"/>
	<path fill-rule="evenodd" clip-rule="evenodd" fill="#ED1C24" d="M176.139,130.41c-0.004-0.158-0.005-0.324-0.008-0.492
		c0.001-0.178-0.006-0.369-0.006-0.58c-0.004-0.207,0.006-0.414,0.025-0.627c0.019-0.207,0.063-0.457,0.138-0.764
		c0.066-0.287,0.136-0.518,0.205-0.674c0.073-0.16,0.258-0.338,0.543-0.545c0.293-0.219,0.558-0.363,0.804-0.438
		c0.242-0.074,0.499-0.146,0.762-0.217c0.268-0.074,0.571-0.121,0.913-0.143c0.344-0.018,0.611-0.008,0.806,0.047
		c0.196,0.045,0.455,0.129,0.774,0.242c0.317,0.123,0.56,0.318,0.742,0.598c0.171,0.273,0.225,0.547,0.153,0.83
		c-0.067,0.277-0.136,0.461-0.214,0.553c-0.073,0.084-0.189,0.135-0.364,0.137c-0.176,0.002-0.402-0.025-0.692-0.072
		c-0.298-0.053-0.577-0.066-0.841-0.047c-0.269,0.023-0.502,0.105-0.693,0.248c-0.196,0.141-0.296,0.307-0.325,0.502
		c-0.022,0.191,0.05,0.451,0.229,0.779c0.171,0.326,0.426,0.857,0.753,1.598c0.327,0.748,0.49,1.295,0.494,1.641
		c0.003,0.352-0.093,0.65-0.28,0.891c-0.188,0.248-0.396,0.42-0.607,0.525c-0.223,0.113-0.499,0.125-0.844,0.041
		c-0.347-0.082-0.581-0.207-0.703-0.359c-0.122-0.146-0.586-1.062-1.393-2.719C176.261,130.886,176.142,130.562,176.139,130.41"/>
	<path fill-rule="evenodd" clip-rule="evenodd" fill="#ED1C24" d="M184.815,126.912c0.234-0.168,0.648-0.324,1.235-0.492
		c0.582-0.162,1.049-0.242,1.39-0.225c0.34,0.012,0.681,0.092,1.024,0.244c0.345,0.154,0.588,0.342,0.739,0.572
		c0.145,0.221,0.252,0.559,0.306,1.031s0.039,0.92-0.059,1.33c-0.093,0.422-0.269,0.711-0.532,0.869
		c-0.268,0.158-0.576,0.291-0.914,0.373c-0.341,0.096-0.656,0.156-0.947,0.172c-0.291,0.025-0.354,0.072-0.184,0.162
		c0.173,0.084,0.418,0.184,0.746,0.297c0.305,0.125,0.585,0.201,0.802,0.26c0.218,0.045,0.35,0.197,0.409,0.461
		c0.052,0.258-0.013,0.494-0.178,0.678c-0.174,0.195-0.386,0.309-0.654,0.348c-0.268,0.037-0.557,0.039-0.877,0.012
		c-0.318-0.029-0.666-0.1-1.021-0.199c-0.374-0.09-0.807-0.254-1.288-0.473c-0.496-0.221-0.91-0.443-1.258-0.666
		c-0.343-0.223-0.571-0.584-0.671-1.084c-0.111-0.506-0.133-0.934-0.091-1.307c0.047-0.363,0.409-0.896,1.081-1.6
		C184.254,127.322,184.572,127.064,184.815,126.912 M186.008,128.691c0.005,0.104,0.045,0.182,0.148,0.232
		c0.097,0.053,0.208,0.076,0.324,0.074c0.13-0.002,0.243-0.023,0.372-0.061c0.118-0.033,0.19-0.105,0.212-0.213
		c0.023-0.104,0.013-0.207-0.039-0.311c-0.051-0.105-0.146-0.156-0.292-0.152c-0.148,0.004-0.297,0.029-0.443,0.059
		C186.089,128.462,186.007,128.582,186.008,128.691"/>
	<path fill-rule="evenodd" clip-rule="evenodd" fill="#ED1C24" d="M190.397,131.136c0.077-1.805,0.217-2.822,0.436-3.031
		c0.212-0.217,0.511-0.342,0.873-0.402c0.366-0.059,0.699-0.066,0.988-0.041c0.293,0.033,0.508,0.086,0.656,0.18
		c0.15,0.082,0.233,0.172,0.264,0.283c0.02,0.094,0.04,0.217,0.044,0.338c-0.002,0.117,0.262,0.133,0.803,0.037
		c0.541-0.082,1.028-0.084,1.501,0.033c0.459,0.115,0.859,0.352,1.178,0.713c0.322,0.365,0.53,0.805,0.642,1.322
		c0.096,0.518,0.13,0.945,0.087,1.279c-0.047,0.336-0.163,0.594-0.352,0.791c-0.195,0.188-0.41,0.316-0.653,0.371
		c-0.246,0.053-0.481,0.086-0.699,0.086c-0.22,0.004-0.409-0.033-0.553-0.121c-0.149-0.088-0.321-0.217-0.517-0.393
		c-0.194-0.164-0.288-0.379-0.295-0.617c-0.01-0.24-0.006-0.461-0.008-0.656c-0.006-0.191-0.093-0.301-0.268-0.355
		c-0.171-0.047-0.312-0.068-0.434-0.049c-0.123,0.018-0.243,0.078-0.359,0.189c-0.123,0.105-0.184,0.246-0.183,0.416
		c0.005,0.176,0.007,0.379,0.012,0.602c0.002,0.223-0.062,0.432-0.183,0.602c-0.114,0.178-0.234,0.309-0.358,0.395
		c-0.118,0.09-0.291,0.139-0.513,0.162c-0.214,0.02-0.479,0.027-0.808,0.014c-0.318-0.018-0.566-0.123-0.775-0.301
		c-0.194-0.191-0.32-0.377-0.404-0.58c-0.067-0.188-0.11-0.412-0.113-0.697C190.402,131.419,190.401,131.238,190.397,131.136"/>
	<path fill-rule="evenodd" clip-rule="evenodd" fill="#ED1C24" d="M203.962,124.964c0.026-1.5,0.129-2.387,0.301-2.666
		c0.163-0.273,0.394-0.494,0.68-0.635c0.291-0.141,0.582-0.191,0.876-0.141c0.288,0.047,0.544,0.15,0.737,0.332
		c0.195,0.174,0.333,0.367,0.409,0.592c0.071,0.221,0.031,1.344-0.142,3.367c-0.166,2.012-0.244,3.428-0.236,4.248
		c0.01,0.818-0.007,1.301-0.056,1.459c-0.043,0.166-0.196,0.291-0.439,0.402c-0.24,0.1-0.508,0.162-0.802,0.166
		c-0.29,0.004-0.584-0.086-0.874-0.275c-0.306-0.199-0.486-0.385-0.562-0.592c-0.076-0.209-0.109-0.375-0.11-0.496
		c-0.004-0.121-0.116-0.107-0.334,0.031c-0.217,0.139-0.486,0.25-0.798,0.324c-0.324,0.07-0.649,0.094-0.993,0.064
		c-0.337-0.029-0.703-0.08-1.093-0.143c-0.388-0.07-0.744-0.25-1.067-0.561c-0.325-0.311-0.529-0.684-0.607-1.117
		c-0.076-0.43-0.078-0.855-0.017-1.271c0.069-0.42,0.334-0.836,0.798-1.24c0.452-0.406,0.902-0.752,1.338-1.033
		c0.436-0.275,0.877-0.453,1.342-0.512c0.467-0.055,0.781-0.09,0.957-0.088c0.17-0.002,0.305,0.012,0.406,0.045
		C203.767,125.261,203.868,125.171,203.962,124.964 M202.309,127.642c-0.334,0.213-0.599,0.389-0.792,0.531
		c-0.195,0.143-0.292,0.273-0.294,0.393c0.007,0.125,0.077,0.236,0.228,0.338c0.148,0.104,0.368,0.152,0.668,0.15
		c0.282-0.002,0.56-0.123,0.826-0.352c0.263-0.227,0.461-0.432,0.579-0.605c0.121-0.178,0.134-0.328,0.033-0.473
		c-0.102-0.129-0.208-0.205-0.335-0.209C203.104,127.419,202.799,127.5,202.309,127.642"/>
	<path fill-rule="evenodd" clip-rule="evenodd" fill="#ED1C24" d="M209.826,126.585c0.245-0.152,0.656-0.318,1.236-0.48
		c0.587-0.16,1.05-0.24,1.389-0.232c0.342,0.018,0.686,0.1,1.033,0.25c0.339,0.15,0.583,0.338,0.73,0.568
		c0.152,0.223,0.261,0.561,0.308,1.035c0.061,0.469,0.041,0.916-0.056,1.332c-0.092,0.416-0.264,0.699-0.538,0.869
		c-0.265,0.156-0.567,0.285-0.907,0.371c-0.351,0.094-0.663,0.15-0.948,0.174c-0.294,0.021-0.359,0.072-0.185,0.152
		c0.174,0.088,0.416,0.186,0.74,0.307c0.321,0.115,0.582,0.201,0.811,0.256c0.21,0.047,0.35,0.203,0.402,0.459
		c0.056,0.262-0.004,0.492-0.176,0.682c-0.166,0.195-0.385,0.309-0.653,0.348c-0.259,0.037-0.558,0.039-0.879,0.012
		c-0.32-0.035-0.66-0.102-1.022-0.197c-0.368-0.098-0.791-0.254-1.288-0.479c-0.491-0.221-0.909-0.447-1.252-0.664
		c-0.347-0.223-0.571-0.588-0.673-1.086c-0.1-0.502-0.139-0.938-0.092-1.303c0.041-0.369,0.409-0.898,1.082-1.592
		C209.274,127,209.589,126.75,209.826,126.585 M211.024,128.371c0.003,0.104,0.047,0.184,0.146,0.23
		c0.097,0.057,0.209,0.082,0.327,0.08c0.123,0,0.248-0.029,0.365-0.061c0.128-0.029,0.194-0.105,0.22-0.213
		c0.021-0.105,0.01-0.205-0.045-0.312c-0.048-0.104-0.145-0.145-0.296-0.148c-0.135,0-0.293,0.02-0.43,0.053
		C211.111,128.146,211.024,128.267,211.024,128.371"/>
	<path fill-rule="evenodd" clip-rule="evenodd" fill="#ED1C24" d="M215.321,129.91c-0.006-0.158-0.007-0.318-0.003-0.492
		c-0.003-0.17-0.007-0.367-0.009-0.574c-0.004-0.211,0.006-0.418,0.03-0.631c0.019-0.209,0.063-0.461,0.136-0.76
		c0.068-0.293,0.141-0.52,0.213-0.678c0.064-0.16,0.249-0.338,0.538-0.549s0.56-0.359,0.801-0.432
		c0.242-0.074,0.501-0.148,0.771-0.217c0.269-0.076,0.562-0.121,0.902-0.145c0.348-0.021,0.615-0.006,0.809,0.043
		c0.197,0.045,0.453,0.133,0.775,0.25c0.314,0.123,0.557,0.318,0.731,0.59c0.176,0.281,0.232,0.555,0.156,0.832
		c-0.067,0.285-0.146,0.467-0.21,0.547c-0.065,0.094-0.195,0.139-0.365,0.143c-0.17,0.002-0.397-0.023-0.696-0.068
		c-0.287-0.053-0.574-0.064-0.841-0.047c-0.265,0.023-0.496,0.104-0.691,0.246c-0.191,0.141-0.299,0.305-0.32,0.496
		c-0.025,0.197,0.055,0.455,0.229,0.783c0.181,0.328,0.426,0.861,0.754,1.6c0.33,0.746,0.495,1.297,0.495,1.639
		c0.005,0.355-0.088,0.648-0.284,0.893c-0.192,0.248-0.391,0.42-0.611,0.533c-0.222,0.111-0.5,0.113-0.841,0.033
		c-0.349-0.084-0.579-0.201-0.703-0.357c-0.123-0.148-0.586-1.061-1.381-2.723C215.448,130.384,215.323,130.068,215.321,129.91"/>
	<path fill-rule="evenodd" clip-rule="evenodd" fill="#ED1C24" d="M71.836,127.353c-0.666-0.568,0.302-1.949,1.277-2.164
		c0.98-0.201,3.494,0.225,3.066,1.014c-0.213,0.582-3.261,0.945-4.12,1.283L71.836,127.353z"/>
</g>
</svg>
